<svg xmlns="http://www.w3.org/2000/svg" version="1.1" xmlns:xlink="http://www.w3.org/1999/xlink" xmlns:svgjs="http://svgjs.dev/svgjs" width="1440" height="560" preserveAspectRatio="none" viewBox="0 0 1440 560">
    <g mask="url(&quot;#SvgjsMask1141&quot;)" fill="none">
        <rect width="1440" height="560" x="0" y="0" fill="#0e2a47"></rect>
        <path d="M -1425.4765250453372,416 C -1281.48,353.6 -993.48,121.2 -705.4765250453372,104 C -417.48,86.8 -273.48,331 14.523474954662788,330 C 302.52,329 449.43,96 734.5234749546628,99 C 1019.62,102 1298.9,295.8 1440,345" stroke="rgba(52, 133, 255, 1)" stroke-width="2"></path>
        <path d="M -460.617783309893,69 C -316.62,120.4 -28.62,315.2 259.382216690107,326 C 547.38,336.8 691.38,104.6 979.382216690107,123 C 1267.38,141.4 1607.26,428.2 1699.382216690107,418 C 1791.51,407.8 1491.88,141.2 1440,72" stroke="rgba(52, 133, 255, 1)" stroke-width="2"></path>
        <path d="M -348.69434314574823,392 C -204.69,356.8 83.31,201.4 371.30565685425177,216 C 659.31,230.6 803.31,493.8 1091.3056568542518,465 C 1379.31,436.2 1741.57,100.4 1811.3056568542518,72 C 1881.04,43.6 1514.26,272.8 1440,323" stroke="rgba(52, 133, 255, 1)" stroke-width="2"></path>
        <path d="M -1420.1727338531223,237 C -1276.17,259.6 -988.17,352.8 -700.1727338531222,350 C -412.17,347.2 -268.17,230.6 19.827266146877832,223 C 307.83,215.4 455.79,312.8 739.8272661468778,312 C 1023.86,311.2 1299.97,237.6 1440,219" stroke="rgba(52, 133, 255, 1)" stroke-width="2"></path>
        <path d="M -1216.8176013075933,426 C -1072.82,358 -784.82,94 -496.8176013075933,86 C -208.82,78 -64.82,374.8 223.1823986924067,386 C 511.18,397.2 699.82,146.8 943.1823986924067,142 C 1186.55,137.2 1340.64,318 1440,362" stroke="rgba(52, 133, 255, 1)" stroke-width="2"></path>
        <path d="M -864.638636932327,332 C -720.64,320.4 -432.64,247.8 -144.63863693232702,274 C 143.36,300.2 287.36,463.2 575.361363067673,463 C 863.36,462.8 1122.43,299.4 1295.361363067673,273 C 1468.29,246.6 1411.07,319.4 1440,331" stroke="rgba(52, 133, 255, 1)" stroke-width="2"></path>
    </g>
    <defs>
        <mask id="SvgjsMask1141">
            <rect width="1440" height="560" fill="#ffffff"></rect>
        </mask>
    </defs>
</svg>